<svg width="19" height="19" viewBox="0 0 19 19" fill="none" xmlns="http://www.w3.org/2000/svg">
<path d="M6.58267 3.24969L6.35913 3.963H6.81246L6.59013 3.24969H6.58267Z" fill="black"/>
<path d="M13.1945 14.1139L12.9709 14.8272H13.4243L13.2019 14.1139H13.1945Z" fill="black"/>
<path d="M15.7421 2.09739C15.7421 1.4913 15.2508 1 14.6447 1H5.09739C4.4913 1 4 1.4913 4 2.09739V16.1989C4 16.805 4.4913 17.2963 5.09739 17.2963H14.6447C15.2508 17.2963 15.7421 16.805 15.7421 16.1989V2.09739ZM6.90145 4.23731H6.27023L6.14793 4.6214H5.78354L6.40236 2.8107H6.77169L7.38798 4.6214H7.02359L6.90145 4.23731ZM11.1683 10.9142C10.7967 10.9142 10.4582 10.7743 10.2011 10.5449C10.2195 11.024 10.2819 11.6753 10.4756 12.0289H9.3031C9.49712 11.6749 9.55934 11.0233 9.57767 10.5449C9.32066 10.7743 8.98206 10.9142 8.61037 10.9142C7.80735 10.9142 7.15632 10.2632 7.15632 9.46014C7.15632 8.70486 7.73224 8.08428 8.46881 8.01311C8.44587 7.91051 8.43336 7.80395 8.43336 7.69438C8.43336 6.89136 9.08428 6.24038 9.88741 6.24038C10.6904 6.24038 11.3413 6.89136 11.3413 7.69438C11.3413 7.80379 11.3289 7.91029 11.3059 8.01279C12.0444 8.08214 12.6224 8.70349 12.6224 9.46014C12.6224 10.2632 11.9713 10.9142 11.1683 10.9142ZM13.6355 15.4856L13.5132 15.1015H12.882L12.7597 15.4856H12.3953L13.0141 13.6749H13.3834L13.9997 15.4856H13.6355Z" fill="url(#paint0_linear_65_805)"/>
<defs>
<linearGradient id="paint0_linear_65_805" x1="9.87106" y1="1" x2="9.87106" y2="17.2963" gradientUnits="userSpaceOnUse">
<stop stop-color="#F83EFC"/>
<stop offset="1" stop-color="#A7028C"/>
</linearGradient>
</defs>
</svg>
