<svg width="19" height="19" viewBox="0 0 19 19" fill="none" xmlns="http://www.w3.org/2000/svg">
<path d="M15.0417 11.875C13.2921 11.875 11.875 13.2921 11.875 15.0417C11.875 15.6354 12.0412 16.1975 12.3342 16.6725C12.8804 17.5908 13.8858 18.2083 15.0417 18.2083C16.1975 18.2083 17.2029 17.5908 17.7492 16.6725C18.0421 16.1975 18.2083 15.6354 18.2083 15.0417C18.2083 13.2921 16.7913 11.875 15.0417 11.875ZM16.6804 14.7013L14.9942 16.2608C14.8833 16.3638 14.7329 16.4192 14.5904 16.4192C14.44 16.4192 14.2896 16.3638 14.1708 16.245L13.3871 15.4613C13.1575 15.2317 13.1575 14.8517 13.3871 14.6221C13.6167 14.3925 13.9967 14.3925 14.2262 14.6221L14.6063 15.0021L15.8729 13.8304C16.1104 13.6087 16.4904 13.6246 16.7121 13.8621C16.9338 14.0996 16.9179 14.4717 16.6804 14.7013Z" fill="white"/>
<path d="M15.0417 11.875C13.2921 11.875 11.875 13.2921 11.875 15.0417C11.875 15.6354 12.0412 16.1975 12.3342 16.6725C12.8804 17.5908 13.8858 18.2083 15.0417 18.2083C16.1975 18.2083 17.2029 17.5908 17.7492 16.6725C18.0421 16.1975 18.2083 15.6354 18.2083 15.0417C18.2083 13.2921 16.7913 11.875 15.0417 11.875ZM16.6804 14.7013L14.9942 16.2608C14.8833 16.3638 14.7329 16.4192 14.5904 16.4192C14.44 16.4192 14.2896 16.3638 14.1708 16.245L13.3871 15.4613C13.1575 15.2317 13.1575 14.8517 13.3871 14.6221C13.6167 14.3925 13.9967 14.3925 14.2262 14.6221L14.6063 15.0021L15.8729 13.8304C16.1104 13.6087 16.4904 13.6246 16.7121 13.8621C16.9338 14.0996 16.9179 14.4717 16.6804 14.7013Z" fill="url(#paint0_linear_65_759)"/>
<path d="M17.4166 5.97707V6.33332C17.4166 6.76873 17.0603 7.12498 16.6249 7.12498H2.37492C1.9395 7.12498 1.58325 6.76873 1.58325 6.33332V5.96915C1.58325 4.15623 3.04784 2.69165 4.86075 2.69165H14.1312C15.9441 2.69165 17.4166 4.16415 17.4166 5.97707Z" fill="white"/>
<path d="M17.4166 5.97707V6.33332C17.4166 6.76873 17.0603 7.12498 16.6249 7.12498H2.37492C1.9395 7.12498 1.58325 6.76873 1.58325 6.33332V5.96915C1.58325 4.15623 3.04784 2.69165 4.86075 2.69165H14.1312C15.9441 2.69165 17.4166 4.16415 17.4166 5.97707Z" fill="url(#paint1_linear_65_759)"/>
<path d="M1.58325 9.10415V13.0308C1.58325 14.8437 3.04784 16.3083 4.86075 16.3083H9.81658C10.2758 16.3083 10.6716 15.9204 10.632 15.4612C10.5212 14.25 10.9091 12.9358 11.9858 11.8908C12.4291 11.4554 12.9753 11.1229 13.5691 10.9329C14.5587 10.6162 15.5166 10.6558 16.3637 10.9408C16.8783 11.115 17.4166 10.7429 17.4166 10.1966V9.09623C17.4166 8.66082 17.0603 8.30457 16.6249 8.30457H2.37492C1.9395 8.31248 1.58325 8.66873 1.58325 9.10415ZM6.33325 13.6562H4.74992C4.42534 13.6562 4.15617 13.3871 4.15617 13.0625C4.15617 12.7379 4.42534 12.4687 4.74992 12.4687H6.33325C6.65784 12.4687 6.927 12.7379 6.927 13.0625C6.927 13.3871 6.65784 13.6562 6.33325 13.6562Z" fill="white"/>
<path d="M1.58325 9.10415V13.0308C1.58325 14.8437 3.04784 16.3083 4.86075 16.3083H9.81658C10.2758 16.3083 10.6716 15.9204 10.632 15.4612C10.5212 14.25 10.9091 12.9358 11.9858 11.8908C12.4291 11.4554 12.9753 11.1229 13.5691 10.9329C14.5587 10.6162 15.5166 10.6558 16.3637 10.9408C16.8783 11.115 17.4166 10.7429 17.4166 10.1966V9.09623C17.4166 8.66082 17.0603 8.30457 16.6249 8.30457H2.37492C1.9395 8.31248 1.58325 8.66873 1.58325 9.10415ZM6.33325 13.6562H4.74992C4.42534 13.6562 4.15617 13.3871 4.15617 13.0625C4.15617 12.7379 4.42534 12.4687 4.74992 12.4687H6.33325C6.65784 12.4687 6.927 12.7379 6.927 13.0625C6.927 13.3871 6.65784 13.6562 6.33325 13.6562Z" fill="url(#paint2_linear_65_759)"/>
<defs>
<linearGradient id="paint0_linear_65_759" x1="15.0417" y1="11.875" x2="15.0417" y2="18.2083" gradientUnits="userSpaceOnUse">
<stop stop-color="#FC3E3E"/>
<stop offset="1" stop-color="#DA0B0B"/>
</linearGradient>
<linearGradient id="paint1_linear_65_759" x1="9.49992" y1="2.69165" x2="9.49992" y2="7.12498" gradientUnits="userSpaceOnUse">
<stop stop-color="#FC3E3E"/>
<stop offset="1" stop-color="#DA0B0B"/>
</linearGradient>
<linearGradient id="paint2_linear_65_759" x1="9.49992" y1="8.30457" x2="9.49992" y2="16.3083" gradientUnits="userSpaceOnUse">
<stop stop-color="#FC3E3E"/>
<stop offset="1" stop-color="#DA0B0B"/>
</linearGradient>
</defs>
</svg>
