<svg width="19" height="19" viewBox="0 0 19 19" fill="none" xmlns="http://www.w3.org/2000/svg">
<path d="M12.8567 1.58331H6.14341C3.95841 1.58331 3.16675 2.37498 3.16675 4.59956V14.4004C3.16675 16.625 3.95841 17.4166 6.14341 17.4166H12.8488C15.0417 17.4166 15.8334 16.625 15.8334 14.4004V4.59956C15.8334 2.37498 15.0417 1.58331 12.8567 1.58331ZM9.50008 15.2791C8.74008 15.2791 8.11466 14.6537 8.11466 13.8937C8.11466 13.1337 8.74008 12.5083 9.50008 12.5083C10.2601 12.5083 10.8855 13.1337 10.8855 13.8937C10.8855 14.6537 10.2601 15.2791 9.50008 15.2791ZM11.0834 4.9479H7.91675C7.59216 4.9479 7.323 4.67873 7.323 4.35415C7.323 4.02956 7.59216 3.7604 7.91675 3.7604H11.0834C11.408 3.7604 11.6772 4.02956 11.6772 4.35415C11.6772 4.67873 11.408 4.9479 11.0834 4.9479Z" fill="#292D32"/>
<path d="M12.8567 1.58331H6.14341C3.95841 1.58331 3.16675 2.37498 3.16675 4.59956V14.4004C3.16675 16.625 3.95841 17.4166 6.14341 17.4166H12.8488C15.0417 17.4166 15.8334 16.625 15.8334 14.4004V4.59956C15.8334 2.37498 15.0417 1.58331 12.8567 1.58331ZM9.50008 15.2791C8.74008 15.2791 8.11466 14.6537 8.11466 13.8937C8.11466 13.1337 8.74008 12.5083 9.50008 12.5083C10.2601 12.5083 10.8855 13.1337 10.8855 13.8937C10.8855 14.6537 10.2601 15.2791 9.50008 15.2791ZM11.0834 4.9479H7.91675C7.59216 4.9479 7.323 4.67873 7.323 4.35415C7.323 4.02956 7.59216 3.7604 7.91675 3.7604H11.0834C11.408 3.7604 11.6772 4.02956 11.6772 4.35415C11.6772 4.67873 11.408 4.9479 11.0834 4.9479Z" fill="url(#paint0_linear_65_734)"/>
<defs>
<linearGradient id="paint0_linear_65_734" x1="9.50008" y1="1.58331" x2="9.50008" y2="17.4166" gradientUnits="userSpaceOnUse">
<stop stop-color="#4EB3FF"/>
<stop offset="1" stop-color="#0091FF"/>
</linearGradient>
</defs>
</svg>
