<svg width="19" height="19" viewBox="0 0 19 19" fill="none" xmlns="http://www.w3.org/2000/svg">
<path d="M14.25 1.58331H4.75C3.43583 1.58331 2.375 2.63623 2.375 3.93456V12.5716C2.375 13.87 3.43583 14.9229 4.75 14.9229H5.35167C5.985 14.9229 6.58667 15.1683 7.03 15.6116L8.38375 16.9496C9.00125 17.5591 10.0067 17.5591 10.6242 16.9496L11.9779 15.6116C12.4213 15.1683 13.0308 14.9229 13.6562 14.9229H14.25C15.5642 14.9229 16.625 13.87 16.625 12.5716V3.93456C16.625 2.63623 15.5642 1.58331 14.25 1.58331ZM8.2175 10.2996C8.54208 10.2996 8.81125 10.5687 8.81125 10.8933C8.81125 11.2179 8.54208 11.4871 8.2175 11.4871H6.09583C5.7475 11.4871 5.42292 11.3208 5.21708 11.0358C5.01917 10.7666 4.97167 10.4341 5.06667 10.1175C5.34375 9.2704 6.02458 8.81123 6.62625 8.39956C7.25958 7.97206 7.61583 7.7029 7.61583 7.24373C7.61583 6.83206 7.28333 6.49956 6.87167 6.49956C6.46 6.49956 6.13542 6.83998 6.13542 7.25165C6.13542 7.57623 5.86625 7.8454 5.54167 7.8454C5.21708 7.8454 4.94792 7.57623 4.94792 7.25165C4.94792 6.19081 5.81083 5.31998 6.87958 5.31998C7.94833 5.31998 8.81125 6.1829 8.81125 7.25165C8.81125 8.3679 7.97208 8.9379 7.29917 9.39706C6.87958 9.68206 6.48375 9.95123 6.28583 10.3075H8.2175V10.2996ZM13.4583 10.355H13.2921V10.9012C13.2921 11.2258 13.0229 11.495 12.6983 11.495C12.3738 11.495 12.1046 11.2258 12.1046 10.9012V10.355H10.5529C10.5529 10.355 10.5529 10.355 10.545 10.355C10.1571 10.355 9.80083 10.1491 9.60292 9.81665C9.405 9.47623 9.405 9.05665 9.60292 8.72415C10.1413 7.7979 10.7667 6.74498 11.3367 5.82665C11.59 5.4229 12.0729 5.24081 12.5242 5.36748C12.9754 5.50206 13.2921 5.91373 13.2842 6.38873V9.1754H13.4583C13.7829 9.1754 14.0521 9.44456 14.0521 9.76915C14.0521 10.0937 13.7829 10.355 13.4583 10.355Z" fill="#292D32"/>
<path d="M14.25 1.58331H4.75C3.43583 1.58331 2.375 2.63623 2.375 3.93456V12.5716C2.375 13.87 3.43583 14.9229 4.75 14.9229H5.35167C5.985 14.9229 6.58667 15.1683 7.03 15.6116L8.38375 16.9496C9.00125 17.5591 10.0067 17.5591 10.6242 16.9496L11.9779 15.6116C12.4213 15.1683 13.0308 14.9229 13.6562 14.9229H14.25C15.5642 14.9229 16.625 13.87 16.625 12.5716V3.93456C16.625 2.63623 15.5642 1.58331 14.25 1.58331ZM8.2175 10.2996C8.54208 10.2996 8.81125 10.5687 8.81125 10.8933C8.81125 11.2179 8.54208 11.4871 8.2175 11.4871H6.09583C5.7475 11.4871 5.42292 11.3208 5.21708 11.0358C5.01917 10.7666 4.97167 10.4341 5.06667 10.1175C5.34375 9.2704 6.02458 8.81123 6.62625 8.39956C7.25958 7.97206 7.61583 7.7029 7.61583 7.24373C7.61583 6.83206 7.28333 6.49956 6.87167 6.49956C6.46 6.49956 6.13542 6.83998 6.13542 7.25165C6.13542 7.57623 5.86625 7.8454 5.54167 7.8454C5.21708 7.8454 4.94792 7.57623 4.94792 7.25165C4.94792 6.19081 5.81083 5.31998 6.87958 5.31998C7.94833 5.31998 8.81125 6.1829 8.81125 7.25165C8.81125 8.3679 7.97208 8.9379 7.29917 9.39706C6.87958 9.68206 6.48375 9.95123 6.28583 10.3075H8.2175V10.2996ZM13.4583 10.355H13.2921V10.9012C13.2921 11.2258 13.0229 11.495 12.6983 11.495C12.3738 11.495 12.1046 11.2258 12.1046 10.9012V10.355H10.5529C10.5529 10.355 10.5529 10.355 10.545 10.355C10.1571 10.355 9.80083 10.1491 9.60292 9.81665C9.405 9.47623 9.405 9.05665 9.60292 8.72415C10.1413 7.7979 10.7667 6.74498 11.3367 5.82665C11.59 5.4229 12.0729 5.24081 12.5242 5.36748C12.9754 5.50206 13.2921 5.91373 13.2842 6.38873V9.1754H13.4583C13.7829 9.1754 14.0521 9.44456 14.0521 9.76915C14.0521 10.0937 13.7829 10.355 13.4583 10.355Z" fill="url(#paint0_linear_65_767)"/>
<path d="M12.1047 9.16753V6.84003C11.6376 7.60003 11.1547 8.41544 10.7192 9.15961H12.1047V9.16753Z" fill="#292D32"/>
<path d="M12.1047 9.16753V6.84003C11.6376 7.60003 11.1547 8.41544 10.7192 9.15961H12.1047V9.16753Z" fill="url(#paint1_linear_65_767)"/>
<defs>
<linearGradient id="paint0_linear_65_767" x1="9.5" y1="1.58331" x2="9.5" y2="17.4067" gradientUnits="userSpaceOnUse">
<stop stop-color="#6F58FA"/>
<stop offset="1" stop-color="#4225F0"/>
</linearGradient>
<linearGradient id="paint1_linear_65_767" x1="11.4119" y1="6.84003" x2="11.4119" y2="9.16753" gradientUnits="userSpaceOnUse">
<stop stop-color="#6F58FA"/>
<stop offset="1" stop-color="#4225F0"/>
</linearGradient>
</defs>
</svg>
