<svg width="19" height="19" viewBox="0 0 19 19" fill="none" xmlns="http://www.w3.org/2000/svg">
<path d="M9.49996 11.875C5.53371 11.875 2.30371 14.535 2.30371 17.8125C2.30371 18.0342 2.47788 18.2083 2.69954 18.2083H16.3004C16.522 18.2083 16.6962 18.0342 16.6962 17.8125C16.6962 14.535 13.4662 11.875 9.49996 11.875Z" fill="#292D32"/>
<path d="M9.49996 11.875C5.53371 11.875 2.30371 14.535 2.30371 17.8125C2.30371 18.0342 2.47788 18.2083 2.69954 18.2083H16.3004C16.522 18.2083 16.6962 18.0342 16.6962 17.8125C16.6962 14.535 13.4662 11.875 9.49996 11.875Z" fill="url(#paint0_linear_65_747)"/>
<path d="M12.4372 2.89748C11.7247 2.08998 10.6638 1.58331 9.50008 1.58331C8.39175 1.58331 7.37841 2.03456 6.658 2.77873C5.96925 3.49123 5.54175 4.4729 5.54175 5.54165C5.54175 6.28581 5.74758 6.98248 6.11966 7.57623C6.31758 7.91665 6.57091 8.2254 6.87175 8.47873C7.5605 9.11206 8.47883 9.49998 9.50008 9.49998C10.9488 9.49998 12.1997 8.72415 12.8884 7.57623C13.0942 7.23581 13.2526 6.85581 13.3397 6.45998C13.4188 6.16706 13.4584 5.85831 13.4584 5.54165C13.4584 4.52831 13.0705 3.60206 12.4372 2.89748ZM10.9805 6.26998H10.2442V7.0379C10.2442 7.44956 9.91175 7.78206 9.50008 7.78206C9.08841 7.78206 8.75591 7.44956 8.75591 7.0379V6.26998H8.01966C7.608 6.26998 7.2755 5.93748 7.2755 5.52581C7.2755 5.11415 7.608 4.78165 8.01966 4.78165H8.75591V4.07706C8.75591 3.6654 9.08841 3.3329 9.50008 3.3329C9.91175 3.3329 10.2442 3.6654 10.2442 4.07706V4.78165H10.9805C11.3922 4.78165 11.7247 5.11415 11.7247 5.52581C11.7247 5.93748 11.3922 6.26998 10.9805 6.26998Z" fill="#292D32"/>
<path d="M12.4372 2.89748C11.7247 2.08998 10.6638 1.58331 9.50008 1.58331C8.39175 1.58331 7.37841 2.03456 6.658 2.77873C5.96925 3.49123 5.54175 4.4729 5.54175 5.54165C5.54175 6.28581 5.74758 6.98248 6.11966 7.57623C6.31758 7.91665 6.57091 8.2254 6.87175 8.47873C7.5605 9.11206 8.47883 9.49998 9.50008 9.49998C10.9488 9.49998 12.1997 8.72415 12.8884 7.57623C13.0942 7.23581 13.2526 6.85581 13.3397 6.45998C13.4188 6.16706 13.4584 5.85831 13.4584 5.54165C13.4584 4.52831 13.0705 3.60206 12.4372 2.89748ZM10.9805 6.26998H10.2442V7.0379C10.2442 7.44956 9.91175 7.78206 9.50008 7.78206C9.08841 7.78206 8.75591 7.44956 8.75591 7.0379V6.26998H8.01966C7.608 6.26998 7.2755 5.93748 7.2755 5.52581C7.2755 5.11415 7.608 4.78165 8.01966 4.78165H8.75591V4.07706C8.75591 3.6654 9.08841 3.3329 9.50008 3.3329C9.91175 3.3329 10.2442 3.6654 10.2442 4.07706V4.78165H10.9805C11.3922 4.78165 11.7247 5.11415 11.7247 5.52581C11.7247 5.93748 11.3922 6.26998 10.9805 6.26998Z" fill="url(#paint1_linear_65_747)"/>
<defs>
<linearGradient id="paint0_linear_65_747" x1="2.30371" y1="14.9457" x2="16.2964" y2="14.9457" gradientUnits="userSpaceOnUse">
<stop stop-color="#2CB865"/>
<stop offset="1" stop-color="#089E4E"/>
</linearGradient>
<linearGradient id="paint1_linear_65_747" x1="5.54175" y1="5.4217" x2="13.2385" y2="5.4217" gradientUnits="userSpaceOnUse">
<stop stop-color="#2CB865"/>
<stop offset="1" stop-color="#089E4E"/>
</linearGradient>
</defs>
</svg>
