<svg width="19" height="19" viewBox="0 0 19 19" fill="none" xmlns="http://www.w3.org/2000/svg">
<path d="M13.1812 3.05585H7.84541V5.44668C7.84541 5.75543 7.59207 6.00085 7.29124 6.00085C6.99041 6.00085 6.73708 5.75543 6.73708 5.44668V3.05585H5.81874C2.69166 3.05585 1.66249 3.99001 1.59124 6.91126C1.58332 7.05376 1.64666 7.20418 1.74957 7.3071C1.85249 7.41793 1.98707 7.47335 2.14541 7.47335C3.25374 7.47335 4.16416 8.39168 4.16416 9.50001C4.16416 10.6083 3.25374 11.5267 2.14541 11.5267C1.99499 11.5267 1.85249 11.5821 1.74957 11.6929C1.64666 11.7958 1.58332 11.9463 1.59124 12.0888C1.66249 15.01 2.69166 15.9442 5.81874 15.9442H6.73708V13.5533C6.73708 13.2446 6.99041 12.9992 7.29124 12.9992C7.59207 12.9992 7.84541 13.2446 7.84541 13.5533V15.9442H13.1812C16.4271 15.9442 17.4167 14.9546 17.4167 11.7088V7.29126C17.4167 4.04543 16.4271 3.05585 13.1812 3.05585ZM14.6221 9.42085L13.8858 10.1333C13.8542 10.1571 13.8462 10.2046 13.8542 10.2442L14.0283 11.2496C14.06 11.4317 13.9887 11.6217 13.8304 11.7325C13.68 11.8433 13.4821 11.8592 13.3158 11.7721L12.4054 11.2971C12.3737 11.2813 12.3262 11.2813 12.2946 11.2971L11.3842 11.7721C11.3129 11.8117 11.2337 11.8275 11.1546 11.8275C11.0517 11.8275 10.9567 11.7958 10.8696 11.7325C10.7192 11.6217 10.64 11.4396 10.6717 11.2496L10.8458 10.2442C10.8537 10.2046 10.8379 10.165 10.8142 10.1333L10.0779 9.42085C9.94332 9.29418 9.89582 9.09626 9.95124 8.9221C10.0067 8.74001 10.1571 8.61335 10.3471 8.5896L11.3604 8.43918C11.4 8.43126 11.4317 8.40751 11.4554 8.37585L11.9067 7.45751C11.9937 7.29126 12.16 7.18835 12.35 7.18835C12.54 7.18835 12.7062 7.29126 12.7854 7.45751L13.2367 8.37585C13.2525 8.41543 13.2842 8.43918 13.3237 8.43918L14.3371 8.5896C14.5271 8.61335 14.6775 8.74793 14.7329 8.9221C14.8042 9.09626 14.7567 9.28626 14.6221 9.42085Z" fill="#292D32"/>
<path d="M13.1812 3.05585H7.84541V5.44668C7.84541 5.75543 7.59207 6.00085 7.29124 6.00085C6.99041 6.00085 6.73708 5.75543 6.73708 5.44668V3.05585H5.81874C2.69166 3.05585 1.66249 3.99001 1.59124 6.91126C1.58332 7.05376 1.64666 7.20418 1.74957 7.3071C1.85249 7.41793 1.98707 7.47335 2.14541 7.47335C3.25374 7.47335 4.16416 8.39168 4.16416 9.50001C4.16416 10.6083 3.25374 11.5267 2.14541 11.5267C1.99499 11.5267 1.85249 11.5821 1.74957 11.6929C1.64666 11.7958 1.58332 11.9463 1.59124 12.0888C1.66249 15.01 2.69166 15.9442 5.81874 15.9442H6.73708V13.5533C6.73708 13.2446 6.99041 12.9992 7.29124 12.9992C7.59207 12.9992 7.84541 13.2446 7.84541 13.5533V15.9442H13.1812C16.4271 15.9442 17.4167 14.9546 17.4167 11.7088V7.29126C17.4167 4.04543 16.4271 3.05585 13.1812 3.05585ZM14.6221 9.42085L13.8858 10.1333C13.8542 10.1571 13.8462 10.2046 13.8542 10.2442L14.0283 11.2496C14.06 11.4317 13.9887 11.6217 13.8304 11.7325C13.68 11.8433 13.4821 11.8592 13.3158 11.7721L12.4054 11.2971C12.3737 11.2813 12.3262 11.2813 12.2946 11.2971L11.3842 11.7721C11.3129 11.8117 11.2337 11.8275 11.1546 11.8275C11.0517 11.8275 10.9567 11.7958 10.8696 11.7325C10.7192 11.6217 10.64 11.4396 10.6717 11.2496L10.8458 10.2442C10.8537 10.2046 10.8379 10.165 10.8142 10.1333L10.0779 9.42085C9.94332 9.29418 9.89582 9.09626 9.95124 8.9221C10.0067 8.74001 10.1571 8.61335 10.3471 8.5896L11.3604 8.43918C11.4 8.43126 11.4317 8.40751 11.4554 8.37585L11.9067 7.45751C11.9937 7.29126 12.16 7.18835 12.35 7.18835C12.54 7.18835 12.7062 7.29126 12.7854 7.45751L13.2367 8.37585C13.2525 8.41543 13.2842 8.43918 13.3237 8.43918L14.3371 8.5896C14.5271 8.61335 14.6775 8.74793 14.7329 8.9221C14.8042 9.09626 14.7567 9.28626 14.6221 9.42085Z" fill="url(#paint0_linear_65_755)"/>
<defs>
<linearGradient id="paint0_linear_65_755" x1="9.50362" y1="3.05585" x2="9.50362" y2="15.9442" gradientUnits="userSpaceOnUse">
<stop stop-color="#FFC940"/>
<stop offset="1" stop-color="#FF740F"/>
</linearGradient>
</defs>
</svg>
